Serifas_Text.ufo
<glyph name="D" format="2">
  <advance width="683"/>
  <unicode hex="0044"/>
  <outline>
    <contour>
      <point x="247" y="0" type="line"/>
      <point x="648.98" y="0"/>
      <point x="663" y="94"/>
      <point x="663" y="375" type="curve" smooth="yes"/>
      <point x="663" y="646"/>
      <point x="648.904" y="750"/>
      <point x="245" y="750" type="curve"/>
      <point x="20" y="750" type="line"/>
      <point x="20" y="630" type="line"/>
      <point x="110" y="630" type="line"/>
      <point x="110" y="137" type="line"/>
      <point x="20" y="102" type="line"/>
      <point x="20" y="0" type="line"/>
    </contour>
    <contour>
      <point x="296" y="630" type="line" smooth="yes"/>
      <point x="523.329" y="630"/>
      <point x="531" y="553"/>
      <point x="531" y="375" type="curve" smooth="yes"/>
      <point x="531" y="197"/>
      <point x="523.329" y="132"/>
      <point x="296" y="132" type="curve" smooth="yes"/>
      <point x="242" y="132" type="line"/>
      <point x="242" y="630" type="line"/>
    </contour>
  </outline>
  <guideline angle="0" x="0" y="615"/>
  <guideline angle="0" x="0" y="103"/>
  <guideline angle="0" x="0" y="137"/>
  <guideline angle="90" x="16" y="0"/>
</glyph>
<glyph name="E" format="2">
  <advance width="650"/>
  <unicode hex="0045"/>
  <outline>
    <contour>
      <point x="195" y="310" type="line"/>
      <point x="458" y="327" type="line"/>
      <point x="458" y="416" type="line"/>
      <point x="195" y="433" type="line"/>
    </contour>
    <contour>
      <point x="47" y="0" type="line"/>
      <point x="592" y="0" type="line"/>
      <point x="592" y="230" type="line"/>
      <point x="518" y="230" type="line"/>
      <point x="470" y="67" type="line"/>
      <point x="544" y="114" type="line"/>
      <point x="216" y="114" type="line"/>
      <point x="246" y="75" type="line"/>
      <point x="246" y="694" type="line"/>
      <point x="155" y="638" type="line"/>
      <point x="491" y="638" type="line"/>
      <point x="466" y="688" type="line"/>
      <point x="484" y="516" type="line"/>
      <point x="570" y="516" type="line"/>
      <point x="578" y="750" type="line"/>
      <point x="31" y="750" type="line"/>
      <point x="31" y="625" type="line"/>
      <point x="146" y="625" type="line"/>
      <point x="116" y="655" type="line"/>
      <point x="116" y="106" type="line"/>
      <point x="143" y="149" type="line"/>
      <point x="47" y="103" type="line"/>
    </contour>
  </outline>
</glyph>
<glyph name="F" format="2">
  <advance width="663"/>
  <unicode hex="0046"/>
  <outline>
    <contour>
      <point x="192" y="299" type="line"/>
      <point x="455" y="316" type="line"/>
      <point x="455" y="405" type="line"/>
      <point x="192" y="422" type="line"/>
    </contour>
    <contour>
      <point x="113" y="106" type="line"/>
      <point x="147" y="150" type="line"/>
      <point x="44" y="101" type="line"/>
      <point x="44" y="-2" type="line"/>
      <point x="328" y="-2" type="line"/>
      <point x="328" y="123" type="line"/>
      <point x="196" y="123" type="line"/>
      <point x="243" y="75" type="line"/>
      <point x="243" y="694" type="line"/>
      <point x="152" y="638" type="line"/>
      <point x="488" y="638" type="line"/>
      <point x="463" y="688" type="line"/>
      <point x="481" y="516" type="line"/>
      <point x="567" y="516" type="line"/>
      <point x="575" y="750" type="line"/>
      <point x="28" y="750" type="line"/>
      <point x="28" y="625" type="line"/>
      <point x="143" y="625" type="line"/>
      <point x="113" y="655" type="line"/>
    </contour>
  </outline>
</glyph>
<glyph name="G" format="2">
  <advance width="738"/>
  <unicode hex="0047"/>
  <outline>
    <contour>
      <point x="542" y="83" type="line"/>
      <point x="542" y="315" type="line"/>
      <point x="571" y="274" type="line"/>
      <point x="374" y="282" type="line"/>
      <point x="374" y="368" type="line"/>
      <point x="669" y="378" type="line"/>
      <point x="669" y="148" type="line"/>
      <point x="630" y="48"/>
      <point x="529.0" y="-18.0"/>
      <point x="374" y="-18" type="curve" smooth="yes"/>
      <point x="151.00000000000003" y="-18.0"/>
      <point x="50.0" y="107.0"/>
      <point x="50" y="381" type="curve" smooth="yes"/>
      <point x="50.0" y="651.0"/>
      <point x="152.9971671388102" y="760.0"/>
      <point x="393" y="760" type="curve"/>
      <point x="495.1880341880342" y="760.0"/>
      <point x="584.4006541838518" y="738.0035111003284"/>
      <point x="637" y="705" type="curve"/>
      <point x="611" y="505" type="line"/>
      <point x="528" y="505" type="line"/>
      <point x="489" y="658" type="line"/>
      <point x="577" y="580" type="line"/>
      <point x="522" y="613"/>
      <point x="463" y="638"/>
      <point x="382" y="638" type="curve" smooth="yes"/>
      <point x="251" y="638.0"/>
      <point x="199" y="582"/>
      <point x="196" y="427" type="curve" smooth="yes"/>
      <point x="192" y="182"/>
      <point x="234" y="100.0"/>
      <point x="374" y="100" type="curve" smooth="yes"/>
      <point x="458" y="100"/>
      <point x="510" y="127"/>
      <point x="555" y="165" type="curve"/>
    </contour>
  </outline>
</glyph>
<glyph name="H" format="2">
  <advance width="827"/>
  <unicode hex="0048"/>
  <outline>
    <contour>
      <point x="207" y="316" type="line"/>
      <point x="207" y="428" type="line"/>
      <point x="597" y="428" type="line"/>
      <point x="597" y="316" type="line"/>
    </contour>
    <contour>
      <point x="153" y="152" type="line"/>
      <point x="119" y="109" type="line"/>
      <point x="119" y="663" type="line"/>
      <point x="166" y="615" type="line"/>
      <point x="34" y="615" type="line"/>
      <point x="34" y="740" type="line"/>
      <point x="318" y="740" type="line"/>
      <point x="318" y="637" type="line"/>
      <point x="215" y="588" type="line"/>
      <point x="251" y="631" type="line"/>
      <point x="251" y="81" type="line"/>
      <point x="208" y="125" type="line"/>
      <point x="334" y="125" type="line"/>
      <point x="334" y="0" type="line"/>
      <point x="50" y="0" type="line"/>
      <point x="50" y="103" type="line"/>
    </contour>
    <contour>
      <point x="671" y="588" type="line"/>
      <point x="707" y="631" type="line"/>
      <point x="707" y="77" type="line"/>
      <point x="658" y="125" type="line"/>
      <point x="790" y="125" type="line"/>
      <point x="790" y="0" type="line"/>
      <point x="506" y="0" type="line"/>
      <point x="506" y="103" type="line"/>
      <point x="609" y="152" type="line"/>
      <point x="575" y="109" type="line"/>
      <point x="575" y="659" type="line"/>
      <point x="616" y="615" type="line"/>
      <point x="490" y="615" type="line"/>
      <point x="490" y="740" type="line"/>
      <point x="774" y="740" type="line"/>
      <point x="774" y="637" type="line"/>
    </contour>
  </outline>
</glyph>
<glyph name="I" format="2">
  <advance width="404"/>
  <unicode hex="0049"/>
  <outline>
    <contour>
      <point x="268" y="59" type="line"/>
      <point x="213" y="110" type="line"/>
      <point x="372" y="110" type="line"/>
      <point x="372" y="0" type="line"/>
      <point x="32" y="0" type="line"/>
      <point x="32" y="88" type="line"/>
      <point x="158" y="117" type="line"/>
      <point x="136" y="71" type="line"/>
      <point x="136" y="662" type="line"/>
      <point x="191" y="630" type="line"/>
      <point x="32" y="630" type="line"/>
      <point x="32" y="740" type="line"/>
      <point x="372" y="740" type="line"/>
      <point x="372" y="652" type="line"/>
      <point x="246" y="623" type="line"/>
      <point x="268" y="669" type="line"/>
    </contour>
  </outline>
</glyph>
<glyph name="L" format="2">
  <advance width="616"/>
  <unicode hex="004C"/>
  <outline>
    <contour>
      <point x="112" y="673" type="line"/>
      <point x="159" y="625" type="line"/>
      <point x="27" y="625" type="line"/>
      <point x="27" y="750" type="line"/>
      <point x="311" y="750" type="line"/>
      <point x="311" y="647" type="line"/>
      <point x="208" y="598" type="line"/>
      <point x="242" y="642" type="line"/>
      <point x="242" y="79" type="line"/>
      <point x="212" y="118" type="line"/>
      <point x="540" y="118" type="line"/>
      <point x="466" y="71" type="line"/>
      <point x="514" y="250" type="line"/>
      <point x="588" y="250" type="line"/>
      <point x="588" y="0" type="line"/>
      <point x="43" y="0" type="line"/>
      <point x="43" y="103" type="line"/>
      <point x="139" y="149" type="line"/>
      <point x="112" y="106" type="line"/>
    </contour>
  </outline>
</glyph>
<glyph name="N" format="2">
  <advance width="765"/>
  <unicode hex="004E"/>
  <outline>
    <contour>
      <point x="39.7895" y="750" type="line"/>
      <point x="40.2927" y="622.711" type="line"/>
      <point x="145.726" y="622.711" type="line"/>
      <point x="109.295" y="656.674" type="line"/>
      <point x="109.295" y="126.393" type="line"/>
      <point x="39.7895" y="126" type="line"/>
      <point x="40.2945" y="0.0071" type="line"/>
      <point x="294.295" y="0.0071" type="line"/>
      <point x="294.295" y="102.909" type="line"/>
      <point x="196.369" y="148.288" type="line" smooth="yes"/>
      <point x="196.369" y="148.288"/>
      <point x="238.624" y="60.842"/>
      <point x="238.624" y="60.842" type="curve"/>
      <point x="238.624" y="60.842"/>
      <point x="239.295" y="454.991"/>
      <point x="239.295" y="598.195" type="curve"/>
      <point x="260.295" y="598.195" type="line"/>
      <point x="527.295" y="0.0071" type="line"/>
      <point x="677.295" y="0.0071" type="line"/>
      <point x="677.295" y="199.231"/>
      <point x="677.295" y="683.882"/>
      <point x="677.295" y="683.882" type="curve" smooth="yes"/>
      <point x="677.295" y="683.882"/>
      <point x="616.099" y="580.717"/>
      <point x="616.099" y="580.717" type="curve"/>
      <point x="740.295" y="647" type="line"/>
      <point x="740.295" y="749.032" type="line"/>
      <point x="547.295" y="749" type="line"/>
      <point x="547.295" y="256.456" type="line"/>
      <point x="527.295" y="256.456" type="line"/>
      <point x="314.295" y="750" type="line"/>
    </contour>
  </outline>
  <guideline angle="0" x="0" y="647"/>
</glyph>
<glyph name="O" format="2">
  <advance width="790"/>
  <unicode hex="004F"/>
  <outline>
    <contour>
      <point x="395.0" y="758" type="curve" smooth="yes"/>
      <point x="192" y="758"/>
      <point x="54" y="621"/>
      <point x="54" y="370" type="curve" smooth="yes"/>
      <point x="54" y="120"/>
      <point x="192" y="-18.0"/>
      <point x="395.0" y="-18.0" type="curve"/>
      <point x="598" y="-18.0"/>
      <point x="736" y="120"/>
      <point x="736" y="370" type="curve" smooth="yes"/>
      <point x="736" y="621"/>
      <point x="598" y="758"/>
    </contour>
    <contour>
      <point x="394" y="628" type="curve" smooth="yes"/>
      <point x="515" y="628"/>
      <point x="593.0" y="536"/>
      <point x="593.0" y="366" type="curve" smooth="yes"/>
      <point x="593.0" y="200"/>
      <point x="515" y="108"/>
      <point x="394" y="108" type="curve"/>
      <point x="275" y="108"/>
      <point x="197.0" y="200"/>
      <point x="197.0" y="366" type="curve" smooth="yes"/>
      <point x="197.0" y="536"/>
      <point x="275" y="628"/>
    </contour>
  </outline>
</glyph>
<glyph name="P" format="2">
  <advance width="664"/>
  <unicode hex="0050"/>
  <outline>
    <contour>
      <point x="333" y="635" type="curve"/>
      <point x="226" y="635" type="line"/>
      <point x="246" y="674" type="line"/>
      <point x="246" y="81" type="line"/>
      <point x="203" y="110" type="line"/>
      <point x="357" y="110" type="line"/>
      <point x="357" y="0" type="line"/>
      <point x="40" y="0" type="line"/>
      <point x="40" y="88" type="line"/>
      <point x="148" y="117" type="line"/>
      <point x="114" y="89" type="line"/>
      <point x="114" y="666" type="line"/>
      <point x="177" y="630" type="line"/>
      <point x="40" y="630" type="line"/>
      <point x="40" y="740" type="line"/>
      <point x="335" y="740" type="line"/>
      <point x="548.8610169491527" y="740.0"/>
      <point x="634.0" y="669.0"/>
      <point x="634" y="489" type="curve" smooth="yes"/>
      <point x="634.0" y="299.0"/>
      <point x="549.9847094801223" y="222"/>
      <point x="303" y="222" type="curve" smooth="yes"/>
      <point x="222" y="222" type="line"/>
      <point x="222" y="328" type="line"/>
      <point x="301" y="328" type="line" smooth="yes"/>
      <point x="464.04255319148933" y="328"/>
      <point x="495.0" y="374.0"/>
      <point x="495" y="489" type="curve" smooth="yes"/>
      <point x="495.0" y="603.0"/>
      <point x="448.2692307692308" y="635.0"/>
    </contour>
  </outline>
</glyph>
<glyph name="Q" format="2">
  <advance width="798"/>
  <unicode hex="0051"/>
  <outline>
    <contour>
      <point x="395" y="-19" type="curve"/>
      <point x="604" y="-19"/>
      <point x="745" y="122"/>
      <point x="745" y="381" type="curve" smooth="yes"/>
      <point x="745" y="640"/>
      <point x="604" y="781"/>
      <point x="395" y="781" type="curve"/>
      <point x="186" y="781"/>
      <point x="45" y="640"/>
      <point x="45" y="381" type="curve" smooth="yes"/>
      <point x="45" y="122"/>
      <point x="186" y="-19"/>
    </contour>
    <contour>
      <point x="394" y="107" type="move"/>
      <point x="270" y="107"/>
      <point x="187" y="204"/>
      <point x="187" y="380" type="curve" smooth="yes"/>
      <point x="187" y="559"/>
      <point x="270" y="656"/>
      <point x="394" y="656" type="curve"/>
      <point x="520" y="656"/>
      <point x="603" y="559"/>
      <point x="603" y="380" type="curve" smooth="yes"/>
      <point x="603" y="204"/>
      <point x="520" y="107"/>
      <point x="394" y="107" type="curve"/>
    </contour>
    <contour>
      <point x="649" y="146" type="line"/>
      <point x="552" y="146" type="line"/>
      <point x="386" y="49" type="line"/>
      <point x="386" y="22" type="line"/>
      <point x="783" y="-18" type="line"/>
      <point x="783" y="93" type="line"/>
    </contour>
  </outline>
</glyph>
<glyph name="T" format="2">
  <advance width="702"/>
  <unicode hex="0054"/>
  <outline>
    <contour>
      <point x="150" y="0" type="line"/>
      <point x="532" y="0" type="line"/>
      <point x="532" y="94" type="line"/>
      <point x="406" y="123" type="line"/>
      <point x="406" y="661" type="line"/>
      <point x="276" y="661" type="line"/>
      <point x="276" y="123" type="line"/>
      <point x="150" y="94" type="line"/>
    </contour>
    <contour>
      <point x="675" y="750" type="line"/>
      <point x="7" y="750" type="line"/>
      <point x="17" y="455" type="line"/>
      <point x="104" y="455" type="line"/>
      <point x="130" y="678" type="line"/>
      <point x="94" y="636" type="line"/>
      <point x="589" y="636" type="line"/>
      <point x="553" y="678" type="line"/>
      <point x="578" y="455" type="line"/>
      <point x="665" y="455" type="line"/>
    </contour>
  </outline>
</glyph>
<glyph name="U" format="2">
  <advance width="794"/>
  <unicode hex="0055"/>
  <anchor x="845" y="103" name="right"/>
  <outline>
    <contour>
      <point x="309.818" y="748.877" type="line"/>
      <point x="309.818" y="748.877"/>
      <point x="309.818" y="625"/>
      <point x="309.818" y="625" type="curve" smooth="yes"/>
      <point x="309.818" y="625"/>
      <point x="245.622" y="624"/>
      <point x="245.622" y="624" type="curve" smooth="yes"/>
      <point x="246.922" y="106.107" type="line"/>
      <point x="193.397" y="190.55" type="line"/>
      <point x="412.007" y="97.5007"/>
      <point x="535.818" y="298.206"/>
      <point x="535.818" y="298.206" type="curve" smooth="yes"/>
      <point x="535.818" y="153.877" type="line"/>
      <point x="535.818" y="155.83"/>
      <point x="423.539" y="153.877"/>
      <point x="423.539" y="153.877" type="curve"/>
      <point x="423.539" y="153.877"/>
      <point x="479.2" y="190.55"/>
      <point x="479.2" y="190.55" type="curve"/>
      <point x="479.2" y="190.55"/>
      <point x="509.361" y="-17.603"/>
      <point x="308.349" y="-17.603" type="curve" smooth="yes"/>
      <point x="115.582" y="-17.603"/>
      <point x="115.817" y="157.877"/>
      <point x="115.817" y="157.877" type="curve"/>
      <point x="115.817" y="661.435" type="line" smooth="yes"/>
      <point x="115.817" y="661.435"/>
      <point x="151.034" y="593.817"/>
      <point x="151.034" y="593.817" type="curve" smooth="yes"/>
      <point x="151.034" y="593.817"/>
      <point x="53.0834" y="647"/>
      <point x="53.0834" y="647" type="curve" smooth="yes"/>
      <point x="53.0834" y="647"/>
      <point x="52.8175" y="748.877"/>
      <point x="52.8175" y="748.877" type="curve"/>
    </contour>
    <contour>
      <point x="717" y="0" type="line"/>
      <point x="517" y="0" type="line"/>
      <point x="517" y="0"/>
      <point x="517" y="661.435"/>
      <point x="517" y="661.435" type="curve"/>
      <point x="569.9" y="588.565" type="line"/>
      <point x="448.84" y="647" type="line"/>
      <point x="448.823" y="750" type="line"/>
      <point x="717" y="750" type="line"/>
      <point x="716.717" y="750"/>
      <point x="717" y="624"/>
      <point x="717" y="624" type="curve" smooth="yes"/>
      <point x="717" y="624"/>
      <point x="647" y="624"/>
      <point x="647" y="624" type="curve" smooth="yes"/>
      <point x="647" y="59" type="line"/>
      <point x="603.665" y="161.435" type="line"/>
      <point x="717" y="103" type="line"/>
    </contour>
  </outline>
  <guideline angle="0" x="0" y="103"/>
  <guideline angle="0" x="0" y="136"/>
  <guideline angle="90" x="705" y="0"/>
  <guideline angle="0" x="0" y="624"/>
  <guideline angle="0" x="0" y="647"/>
  <guideline angle="0" x="0" y="613"/>
</glyph>
<glyph name="a" format="2">
  <advance width="696"/>
  <unicode hex="0061"/>
  <outline>
    <contour>
      <point x="158" y="68" type="curve"/>
      <point x="158" y="55"/>
      <point x="192" y="39"/>
      <point x="221" y="39" type="curve"/>
      <point x="173" y="109"/>
      <point x="170" y="171"/>
      <point x="183" y="251" type="curve"/>
      <point x="183" y="251"/>
      <point x="142" y="231"/>
      <point x="142" y="231" type="curve"/>
      <point x="218" y="257"/>
      <point x="352" y="271"/>
      <point x="426" y="232" type="curve"/>
      <point x="454" y="174" type="line"/>
      <point x="454" y="266"/>
      <point x="369" y="329"/>
      <point x="263" y="329" type="curve" smooth="yes"/>
      <point x="130" y="329"/>
      <point x="55" y="248"/>
      <point x="55" y="157" type="curve" smooth="yes"/>
      <point x="55" y="63"/>
      <point x="87" y="-19"/>
      <point x="194" y="-19" type="curve" smooth="yes"/>
      <point x="277" y="-19"/>
      <point x="382" y="54"/>
      <point x="382" y="99" type="curve"/>
      <point x="315" y="77" type="line"/>
      <point x="436" y="77" type="line"/>
      <point x="436" y="77"/>
      <point x="430" y="180"/>
      <point x="430" y="180" type="curve"/>
      <point x="366" y="112"/>
      <point x="261" y="70"/>
    </contour>
    <contour>
      <point x="394" y="1" type="curve"/>
      <point x="593" y="1" type="line"/>
      <point x="593" y="102" type="line"/>
      <point x="478" y="149" type="line"/>
      <point x="519" y="95" type="line"/>
      <point x="519" y="335" type="line" smooth="yes"/>
      <point x="519" y="500"/>
      <point x="455" y="543"/>
      <point x="346" y="543" type="curve" smooth="yes"/>
      <point x="257" y="543"/>
      <point x="187" y="529"/>
      <point x="94" y="501" type="curve"/>
      <point x="103" y="341" type="line"/>
      <point x="166" y="349" type="line"/>
      <point x="186" y="475" type="line"/>
      <point x="151" y="442" type="line"/>
      <point x="181" y="442"/>
      <point x="207" y="455"/>
      <point x="287" y="455" type="curve" smooth="yes"/>
      <point x="357" y="455"/>
      <point x="395" y="393"/>
      <point x="395" y="307" type="curve" smooth="yes"/>
      <point x="395" y="238"/>
      <point x="394" y="1"/>
    </contour>
  </outline>
</glyph>
<glyph name="b" format="2">
  <advance width="600"/>
  <unicode hex="0062"/>
  <outline>
    <contour>
      <point x="57" y="-2" type="line"/>
      <point x="57" y="650" type="line"/>
      <point x="130" y="635" type="line"/>
      <point x="-20" y="635" type="line"/>
      <point x="-20" y="760" type="line"/>
      <point x="183" y="760" type="line"/>
      <point x="183" y="92" type="line"/>
      <point x="170" y="85" type="line"/>
      <point x="148" y="-2" type="line"/>
    </contour>
    <contour>
      <point x="425" y="276" type="curve"/>
      <point x="425.0" y="378.23880597014926"/>
      <point x="391.0" y="413.0"/>
      <point x="322" y="413" type="curve" smooth="yes"/>
      <point x="258.0" y="413.0"/>
      <point x="223.01951788289196" y="400.5534525649985"/>
      <point x="152" y="362" type="curve"/>
      <point x="152" y="456" type="line"/>
      <point x="298" y="456" type="line"/>
      <point x="221" y="414" type="line"/>
      <point x="221.0" y="512.0"/>
      <point x="266" y="554.0"/>
      <point x="372" y="554" type="curve" smooth="yes"/>
      <point x="476.4502617801047" y="554.0"/>
      <point x="562.0" y="512.5663082437276"/>
      <point x="562" y="265" type="curve" smooth="yes"/>
      <point x="562.0" y="43.78911564625852"/>
      <point x="466.42857142857144" y="-19.0"/>
      <point x="339" y="-19" type="curve" smooth="yes"/>
      <point x="228.0" y="-19.0"/>
      <point x="144" y="70"/>
      <point x="133" y="142" type="curve"/>
      <point x="159" y="179" type="line"/>
      <point x="191.6212293986039" y="116.81578145891129"/>
      <point x="227.0" y="96.0"/>
      <point x="305" y="96" type="curve" smooth="yes"/>
      <point x="367.0" y="96.0"/>
      <point x="425.0" y="123.30337078651687"/>
    </contour>
  </outline>
</glyph>
<glyph name="c" format="2">
  <advance width="536"/>
  <unicode hex="0063"/>
  <outline>
    <contour>
      <point x="504" y="62" type="curve"/>
      <point x="450" y="154" type="line"/>
      <point x="412" y="125"/>
      <point x="369" y="94"/>
      <point x="283" y="94" type="curve" smooth="yes"/>
      <point x="207" y="94"/>
      <point x="169" y="150"/>
      <point x="169" y="284" type="curve" smooth="yes"/>
      <point x="169" y="425"/>
      <point x="207" y="444"/>
      <point x="286" y="444" type="curve" smooth="yes"/>
      <point x="324" y="444"/>
      <point x="353" y="440"/>
      <point x="368" y="423" type="curve" smooth="yes"/>
      <point x="384" y="405"/>
      <point x="390" y="368"/>
      <point x="387" y="323" type="curve"/>
      <point x="490" y="323" type="line"/>
      <point x="504" y="518"/>
      <point x="446" y="559"/>
      <point x="278" y="559" type="curve" smooth="yes"/>
      <point x="120" y="559"/>
      <point x="33" y="474"/>
      <point x="33" y="270" type="curve" smooth="yes"/>
      <point x="33" y="66"/>
      <point x="115" y="-18"/>
      <point x="275" y="-18" type="curve" smooth="yes"/>
      <point x="363" y="-18"/>
      <point x="431" y="7"/>
    </contour>
  </outline>
</glyph>
<glyph name="d" format="2">
  <advance width="621"/>
  <unicode hex="0064"/>
  <outline>
    <contour>
      <point x="591" y="0" type="line"/>
      <point x="438" y="0" type="line"/>
      <point x="399" y="92" type="line"/>
      <point x="399" y="621" type="line"/>
      <point x="324" y="621" type="line"/>
      <point x="324" y="750" type="line"/>
      <point x="521" y="750" type="line"/>
      <point x="521" y="137" type="line"/>
      <point x="591" y="79" type="line"/>
    </contour>
    <contour>
      <point x="169.0" y="213" type="line" smooth="yes"/>
      <point x="169.0" y="138.0"/>
      <point x="214" y="98"/>
      <point x="271" y="98" type="curve" smooth="yes"/>
      <point x="322" y="98"/>
      <point x="377" y="125"/>
      <point x="403" y="168" type="curve"/>
      <point x="442" y="131" type="line"/>
      <point x="417" y="40"/>
      <point x="353" y="-19"/>
      <point x="234" y="-19" type="curve"/>
      <point x="120" y="-19"/>
      <point x="30" y="53"/>
      <point x="30" y="266" type="curve" smooth="yes"/>
      <point x="30" y="481"/>
      <point x="112" y="559"/>
      <point x="225" y="559" type="curve" smooth="yes"/>
      <point x="281" y="559"/>
      <point x="372" y="531"/>
      <point x="391" y="414" type="curve"/>
      <point x="312" y="456" type="line"/>
      <point x="410" y="456" type="line"/>
      <point x="410" y="359" type="line"/>
      <point x="370" y="393"/>
      <point x="323" y="417"/>
      <point x="262" y="417" type="curve" smooth="yes"/>
      <point x="219" y="417"/>
      <point x="169" y="386"/>
      <point x="169.0" y="304" type="curve" smooth="yes"/>
    </contour>
  </outline>
</glyph>
<glyph name="e" format="2">
  <advance width="607"/>
  <unicode hex="0065"/>
  <outline>
    <contour>
      <point x="160" y="315" type="curve"/>
      <point x="88" y="368" type="line"/>
      <point x="131" y="233" type="line"/>
      <point x="250" y="233"/>
      <point x="434" y="234"/>
      <point x="545" y="234" type="curve"/>
      <point x="545" y="468"/>
      <point x="489" y="561"/>
      <point x="303" y="561" type="curve" smooth="yes"/>
      <point x="141" y="561"/>
      <point x="44" y="432"/>
      <point x="44" y="273" type="curve"/>
      <point x="44" y="77"/>
      <point x="152" y="-14"/>
      <point x="285" y="-14" type="curve" smooth="yes"/>
      <point x="344" y="-14"/>
      <point x="464" y="-1"/>
      <point x="532" y="60" type="curve"/>
      <point x="492" y="162" type="line"/>
      <point x="315" y="46"/>
      <point x="180" y="113"/>
      <point x="180" y="239" type="curve"/>
      <point x="179" y="303" type="line"/>
      <point x="179" y="354"/>
      <point x="201" y="442"/>
      <point x="302" y="442" type="curve"/>
      <point x="390" y="442"/>
      <point x="419" y="383"/>
      <point x="419" y="283" type="curve"/>
      <point x="419" y="283"/>
      <point x="467" y="318"/>
      <point x="467" y="318" type="curve"/>
      <point x="388" y="316"/>
      <point x="172" y="315"/>
    </contour>
  </outline>
</glyph>
<glyph name="h" format="2">
  <advance width="640"/>
  <unicode hex="0068"/>
  <outline>
    <contour>
      <point x="34" y="0" type="line"/>
      <point x="269" y="0" type="line"/>
      <point x="269" y="96" type="line"/>
      <point x="212" y="123" type="line"/>
      <point x="212" y="325" type="line"/>
      <point x="242" y="362"/>
      <point x="292" y="403"/>
      <point x="353" y="403" type="curve" smooth="yes"/>
      <point x="416" y="403"/>
      <point x="431.0" y="374"/>
      <point x="431" y="318" type="curve" smooth="yes"/>
      <point x="431" y="123" type="line"/>
      <point x="375.0" y="96" type="line"/>
      <point x="375.0" y="1" type="line"/>
      <point x="608" y="1" type="line"/>
      <point x="608" y="98" type="line"/>
      <point x="554" y="121" type="line"/>
      <point x="554" y="333" type="line" smooth="yes"/>
      <point x="554" y="498"/>
      <point x="526" y="558"/>
      <point x="397" y="558" type="curve" smooth="yes"/>
      <point x="306" y="558"/>
      <point x="269" y="514"/>
      <point x="250" y="431" type="curve"/>
      <point x="212" y="431" type="line"/>
      <point x="212" y="760" type="line"/>
      <point x="34" y="760" type="line"/>
      <point x="34" y="631" type="line"/>
      <point x="92" y="631" type="line"/>
      <point x="92" y="123" type="line"/>
      <point x="34" y="97" type="line"/>
    </contour>
  </outline>
</glyph>
<glyph name="i" format="2">
  <advance width="317"/>
  <unicode hex="0069"/>
  <outline>
    <contour>
      <point x="29" y="0" type="line"/>
      <point x="301" y="0" type="line"/>
      <point x="301.1" y="96" type="line"/>
      <point x="189.963" y="144.604" type="line"/>
      <point x="226" y="108" type="line"/>
      <point x="226" y="540" type="line"/>
      <point x="29" y="540" type="line"/>
      <point x="29" y="464" type="line"/>
      <point x="134" y="417" type="line"/>
      <point x="104" y="477" type="line"/>
      <point x="104" y="129" type="line"/>
      <point x="29.0811" y="96" type="line"/>
    </contour>
    <contour>
      <point x="146.793" y="614.786" type="curve"/>
      <point x="193.194" y="614.072"/>
      <point x="216.752" y="634.775"/>
      <point x="216.752" y="686.887" type="curve" smooth="yes"/>
      <point x="216.752" y="741.855"/>
      <point x="193.194" y="760.415"/>
      <point x="146.793" y="760.415" type="curve"/>
      <point x="100.392" y="761.129"/>
      <point x="76.8339" y="740.427"/>
      <point x="76.8339" y="688.315" type="curve" smooth="yes"/>
      <point x="76.8339" y="633.347"/>
      <point x="100.392" y="614.786"/>
    </contour>
  </outline>
</glyph>
<glyph name="l" format="2">
  <advance width="378"/>
  <unicode hex="006C"/>
  <guideline y="96" identifier="wypexluRHm"/>
  <guideline y="145" identifier="cPpAM42bAs"/>
  <outline>
    <contour>
      <point x="352" y="0" type="line"/>
      <point x="23" y="0" type="line"/>
      <point x="23" y="76" type="line"/>
      <point x="119" y="107" type="line"/>
      <point x="119" y="664" type="line"/>
      <point x="163" y="630" type="line"/>
      <point x="23" y="689" type="line"/>
      <point x="23" y="765" type="line"/>
      <point x="244" y="765" type="line"/>
      <point x="244" y="541" type="line"/>
      <point x="244" y="93" type="line"/>
      <point x="196" y="116" type="line"/>
      <point x="352" y="86" type="line"/>
    </contour>
  </outline>
</glyph>
<glyph name="m" format="2">
  <advance width="928"/>
  <unicode hex="006D"/>
  <outline>
    <contour>
      <point x="587" y="88" type="line"/>
      <point x="475" y="143" type="line"/>
      <point x="533" y="85" type="line"/>
      <point x="533" y="359" type="line"/>
      <point x="533" y="517"/>
      <point x="485" y="555"/>
      <point x="384" y="555" type="curve" smooth="yes"/>
      <point x="289" y="555"/>
      <point x="248" y="511"/>
      <point x="242" y="409" type="curve"/>
      <point x="258" y="445" type="line"/>
      <point x="174" y="445" type="line"/>
      <point x="174" y="337" type="line"/>
      <point x="201" y="390"/>
      <point x="257" y="406"/>
      <point x="313" y="406" type="curve" smooth="yes"/>
      <point x="391" y="406"/>
      <point x="411" y="385"/>
      <point x="411" y="348" type="curve" smooth="yes"/>
      <point x="411" y="85" type="line"/>
      <point x="439" y="127" type="line"/>
      <point x="354" y="88" type="line"/>
      <point x="354" y="-1" type="line"/>
      <point x="587" y="-1" type="line"/>
    </contour>
    <contour>
      <point x="268" y="-1" type="line"/>
      <point x="268" y="88" type="line"/>
      <point x="183" y="130" type="line"/>
      <point x="211" y="88" type="line"/>
      <point x="211" y="539" type="line"/>
      <point x="29" y="539" type="line"/>
      <point x="29" y="419" type="line"/>
      <point x="141" y="419" type="line"/>
      <point x="89" y="448" type="line"/>
      <point x="89" y="95" type="line"/>
      <point x="104" y="121" type="line"/>
      <point x="29" y="88" type="line"/>
      <point x="29" y="-1" type="line"/>
    </contour>
    <contour>
      <point x="909" y="88" type="line"/>
      <point x="797" y="143" type="line"/>
      <point x="855" y="85" type="line"/>
      <point x="855" y="359" type="line"/>
      <point x="855" y="507"/>
      <point x="806" y="555"/>
      <point x="702" y="555" type="curve" smooth="yes"/>
      <point x="606" y="555"/>
      <point x="565" y="511"/>
      <point x="559" y="409" type="curve"/>
      <point x="580" y="445" type="line"/>
      <point x="496" y="445" type="line"/>
      <point x="494" y="337" type="line"/>
      <point x="521" y="390"/>
      <point x="579" y="406"/>
      <point x="635" y="406" type="curve" smooth="yes"/>
      <point x="713" y="406"/>
      <point x="733" y="385"/>
      <point x="733" y="348" type="curve" smooth="yes"/>
      <point x="733" y="85" type="line"/>
      <point x="761" y="127" type="line"/>
      <point x="676" y="88" type="line"/>
      <point x="676" y="-1" type="line"/>
      <point x="909" y="-1" type="line"/>
    </contour>
  </outline>
</glyph>
<glyph name="n" format="2">
  <advance width="595"/>
  <unicode hex="006E"/>
  <outline>
    <contour>
      <point x="13" y="0" type="line"/>
      <point x="235" y="0" type="line"/>
      <point x="235" y="96" type="line"/>
      <point x="195" y="129" type="line"/>
      <point x="195" y="540" type="line"/>
      <point x="13" y="540" type="line"/>
      <point x="13" y="420" type="line"/>
      <point x="125" y="420" type="line"/>
      <point x="73" y="449" type="line"/>
      <point x="72.9412" y="102.977" type="line"/>
      <point x="89.8132" y="138.101" type="line"/>
      <point x="13" y="96" type="line"/>
    </contour>
    <contour>
      <point x="371" y="0" type="line"/>
      <point x="587" y="0" type="line"/>
      <point x="587" y="96" type="line"/>
      <point x="485.462" y="157.577" type="line"/>
      <point x="533" y="93" type="line"/>
      <point x="533" y="346" type="line" smooth="yes"/>
      <point x="533" y="498"/>
      <point x="510.355" y="558"/>
      <point x="368" y="558" type="curve" smooth="yes"/>
      <point x="234.996" y="558"/>
      <point x="221.45" y="508.672"/>
      <point x="221.45" y="414.69" type="curve"/>
      <point x="249.29" y="464" type="line"/>
      <point x="179.269" y="464" type="line"/>
      <point x="192" y="328" type="line"/>
      <point x="192" y="389"/>
      <point x="227.707" y="436.04"/>
      <point x="311.921" y="436.04" type="curve" smooth="yes"/>
      <point x="381.921" y="436.04"/>
      <point x="411" y="391.202"/>
      <point x="411" y="338" type="curve"/>
      <point x="411" y="129" type="line"/>
      <point x="371" y="96" type="line"/>
    </contour>
  </outline>
  <guideline angle="0" x="0" y="129"/>
  <guideline angle="0" x="0" y="96"/>
  <guideline angle="0" x="0" y="436.04"/>
  <guideline angle="0" x="0" y="464"/>
</glyph>
<glyph name="o" format="2">
  <advance width="576"/>
  <unicode hex="006F"/>
  <outline>
    <contour>
      <point x="288" y="-18" type="curve"/>
      <point x="459" y="-18.0"/>
      <point x="540.0" y="60.0"/>
      <point x="540" y="268" type="curve" smooth="yes"/>
      <point x="540.0" y="485.0"/>
      <point x="456" y="558.0"/>
      <point x="288" y="558" type="curve" smooth="yes"/>
      <point x="118.0" y="558.0"/>
      <point x="36.0" y="481.0"/>
      <point x="36" y="273" type="curve" smooth="yes"/>
      <point x="36.0" y="56.0"/>
      <point x="120" y="-18.0"/>
    </contour>
    <contour>
      <point x="175" y="325" type="curve" smooth="yes"/>
      <point x="175.0" y="427.336"/>
      <point x="219.0" y="448.0"/>
      <point x="302" y="448" type="curve" smooth="yes"/>
      <point x="379.0" y="448.0"/>
      <point x="401.0" y="401.4"/>
      <point x="401" y="215" type="curve" smooth="yes"/>
      <point x="401.0" y="112.664"/>
      <point x="357.0" y="92.0"/>
      <point x="274" y="92" type="curve" smooth="yes"/>
      <point x="197.0" y="92.0"/>
      <point x="175.0" y="138.6"/>
    </contour>
  </outline>
</glyph>
<glyph name="p" format="2">
  <advance width="595"/>
  <unicode hex="0070"/>
  <outline>
    <contour>
      <point x="426" y="340" type="line" smooth="yes"/>
      <point x="426" y="402"/>
      <point x="391" y="432"/>
      <point x="324" y="432" type="curve" smooth="yes"/>
      <point x="273" y="432"/>
      <point x="240" y="412"/>
      <point x="214" y="362" type="curve"/>
      <point x="214" y="422" type="line"/>
      <point x="233" y="514"/>
      <point x="289" y="559"/>
      <point x="361" y="559" type="curve"/>
      <point x="475" y="559"/>
      <point x="565" y="497"/>
      <point x="565" y="284" type="curve" smooth="yes"/>
      <point x="565" y="50"/>
      <point x="473" y="-19"/>
      <point x="360" y="-19" type="curve" smooth="yes"/>
      <point x="304" y="-19"/>
      <point x="229" y="5"/>
      <point x="219" y="126" type="curve"/>
      <point x="298" y="84" type="line"/>
      <point x="214" y="84" type="line"/>
      <point x="214" y="148" type="line"/>
      <point x="259" y="119"/>
      <point x="284" y="110"/>
      <point x="333" y="110" type="curve" smooth="yes"/>
      <point x="384" y="110"/>
      <point x="426" y="127"/>
      <point x="426" y="234" type="curve" smooth="yes"/>
    </contour>
    <contour>
      <point x="364" y="-250" type="line"/>
      <point x="30" y="-250" type="line"/>
      <point x="30" y="-160" type="line"/>
      <point x="123" y="-160" type="line"/>
      <point x="90" y="-196" type="line"/>
      <point x="90" y="422" type="line"/>
      <point x="30" y="422" type="line"/>
      <point x="30" y="540" type="line"/>
      <point x="189" y="540" type="line"/>
      <point x="189" y="540"/>
      <point x="189" y="422"/>
      <point x="189" y="422" type="curve"/>
      <point x="214" y="422" type="line"/>
      <point x="214" y="-130" type="line"/>
      <point x="364" y="-185" type="line"/>
    </contour>
  </outline>
</glyph>
<glyph name="q" format="2">
  <advance width="600"/>
  <unicode hex="0071"/>
  <outline>
    <contour>
      <point x="222" y="-19" type="curve" smooth="yes"/>
      <point x="118.64921465968587" y="-19.0"/>
      <point x="34.0" y="23.0"/>
      <point x="34" y="279" type="curve"/>
      <point x="34.0" y="503.0"/>
      <point x="128.71428571428572" y="554.0"/>
      <point x="255" y="554" type="curve" smooth="yes"/>
      <point x="366" y="554"/>
      <point x="450" y="465"/>
      <point x="461" y="393" type="curve"/>
      <point x="418" y="379" type="line"/>
      <point x="404" y="430"/>
      <point x="339" y="444.0"/>
      <point x="284" y="444" type="curve" smooth="yes"/>
      <point x="220" y="444"/>
      <point x="170" y="425"/>
      <point x="170" y="313" type="curve" smooth="yes"/>
      <point x="170.0" y="138.41884816753927"/>
      <point x="202.0" y="118.0"/>
      <point x="282" y="118" type="curve" smooth="yes"/>
      <point x="356.0" y="118.0"/>
      <point x="430.0179017599819" y="161.06649408996435"/>
      <point x="463" y="226" type="curve"/>
      <point x="442" y="79" type="line"/>
      <point x="296" y="79" type="line"/>
      <point x="373" y="121" type="line"/>
      <point x="373.0" y="23.0"/>
      <point x="328.0" y="-19.0"/>
    </contour>
    <contour>
      <point x="268" y="-210" type="line"/>
      <point x="268" y="-130" type="line"/>
      <point x="439" y="-88" type="line"/>
      <point x="410" y="-122" type="line"/>
      <point x="410" y="464" type="line"/>
      <point x="423" y="471" type="line"/>
      <point x="445" y="558" type="line"/>
      <point x="538" y="558" type="line"/>
      <point x="538" y="-124" type="line"/>
      <point x="508" y="-99" type="line"/>
      <point x="613" y="-99" type="line"/>
      <point x="613" y="-210" type="line"/>
    </contour>
  </outline>
</glyph>
<glyph name="r" format="2">
  <advance width="526"/>
  <unicode hex="0072"/>
  <outline>
    <contour>
      <point x="198.507" y="415.369" type="line"/>
      <point x="288.539" y="415.369" type="line"/>
      <point x="253.299" y="389.035" type="line"/>
      <point x="253.299" y="389.035"/>
      <point x="237.606" y="550.17"/>
      <point x="405.299" y="550.17" type="curve" smooth="yes"/>
      <point x="502.2" y="550.17"/>
      <point x="538.324" y="466.902"/>
      <point x="538.324" y="466.902" type="curve"/>
      <point x="538.324" y="466.902"/>
      <point x="408.069" y="353.035"/>
      <point x="408.069" y="353.035" type="curve"/>
      <point x="304.792" y="381.261"/>
      <point x="238.535" y="339.025"/>
      <point x="199.042" y="302.434" type="curve"/>
    </contour>
    <contour>
      <point x="33.8862" y="-0.7717" type="line"/>
      <point x="33.8862" y="97.228" type="line"/>
      <point x="122.271" y="137" type="line"/>
      <point x="90.9015" y="88.793" type="line"/>
      <point x="91.8224" y="466.902" type="line" smooth="yes"/>
      <point x="91.8224" y="466.902"/>
      <point x="142.604" y="410.772"/>
      <point x="142.604" y="410.772" type="curve" smooth="yes"/>
      <point x="34.0687" y="410.772" type="line"/>
      <point x="34.0687" y="540" type="line"/>
      <point x="34.0687" y="540"/>
      <point x="214.563" y="540"/>
      <point x="214.563" y="540" type="curve" smooth="yes"/>
      <point x="213.917" y="116" type="line"/>
      <point x="213.917" y="116"/>
      <point x="270.887" y="-0.771698"/>
      <point x="270.887" y="-0.771698" type="curve"/>
    </contour>
  </outline>
</glyph>
<glyph name="u" format="2">
  <advance width="644"/>
  <unicode hex="0075"/>
  <outline>
    <contour>
      <point x="232" y="-15" type="curve" smooth="yes"/>
      <point x="339" y="-15"/>
      <point x="391" y="27"/>
      <point x="391" y="156" type="curve"/>
      <point x="344" y="97" type="line"/>
      <point x="447" y="97" type="line"/>
      <point x="417" y="153" type="line"/>
      <point x="423" y="1" type="line"/>
      <point x="590" y="1" type="line"/>
      <point x="590" y="111" type="line"/>
      <point x="590" y="111"/>
      <point x="478" y="156"/>
      <point x="478" y="156" type="curve"/>
      <point x="478" y="156"/>
      <point x="537" y="76"/>
      <point x="537" y="76" type="curve"/>
      <point x="537" y="370" type="line"/>
      <point x="537" y="540" type="line"/>
      <point x="335" y="540" type="line"/>
      <point x="335" y="438" type="line"/>
      <point x="469" y="387" type="line"/>
      <point x="417" y="448" type="line"/>
      <point x="417" y="207" type="line"/>
      <point x="375" y="147"/>
      <point x="317" y="140"/>
      <point x="275" y="140" type="curve" smooth="yes"/>
      <point x="205" y="140"/>
      <point x="177" y="150"/>
      <point x="177" y="218" type="curve" smooth="yes"/>
      <point x="177" y="353" type="line"/>
      <point x="177" y="540" type="line"/>
      <point x="-5" y="540" type="line"/>
      <point x="-5" y="438" type="line"/>
      <point x="109" y="387" type="line"/>
      <point x="57" y="448" type="line"/>
      <point x="57" y="189" type="line" smooth="yes"/>
      <point x="57" y="56"/>
      <point x="101" y="-15"/>
    </contour>
  </outline>
  <guideline angle="0" x="0" y="557"/>
  <guideline angle="0" x="0" y="-37"/>
  <guideline angle="0" x="0" y="95"/>
</glyph>
<glyph name="Ntilde" format="2">
  <advance width="764"/>
  <unicode hex="00D1"/>
  <outline>
    <contour>
      <point x="306" y="914" type="curve"/>
      <point x="239" y="914"/>
      <point x="225" y="889"/>
      <point x="225" y="821" type="curve"/>
      <point x="112" y="821" type="line"/>
      <point x="112" y="977"/>
      <point x="138" y="1037"/>
      <point x="261" y="1037" type="curve"/>
      <point x="410" y="1037"/>
      <point x="406" y="919"/>
      <point x="505" y="919" type="curve"/>
      <point x="572" y="919"/>
      <point x="588" y="958"/>
      <point x="588" y="1027" type="curve"/>
      <point x="701" y="1027" type="line"/>
      <point x="701" y="871"/>
      <point x="673" y="811"/>
      <point x="549" y="811" type="curve"/>
      <point x="388" y="811"/>
      <point x="414" y="914"/>
    </contour>
    <component base="N" xOffset="-1"/>
  </outline>
</glyph>
<glyph name="ntilde" format="2">
  <advance width="636"/>
  <unicode hex="00F1"/>
  <outline>
    <component base="n"/>
    <contour>
      <point x="46.281" y="647.107" type="line"/>
      <point x="84.9137" y="584.351" type="line"/>
      <point x="206.825" y="641.86" type="line"/>
      <point x="457.109" y="592.888" type="line"/>
      <point x="555.906" y="647.107" type="line"/>
      <point x="510.41" y="718.425" type="line"/>
      <point x="429.187" y="676.267" type="line"/>
      <point x="200.239" y="724.938" type="line"/>
    </contour>
  </outline>
</glyph>
<glyph name="O.3" format="2">
  <advance width="733"/>
  <outline>
    <contour>
      <point x="13" y="372" type="curve" smooth="yes"/>
      <point x="13" y="594"/>
      <point x="148" y="760"/>
      <point x="380" y="760" type="curve"/>
      <point x="585" y="760"/>
      <point x="746" y="602"/>
      <point x="746" y="379" type="curve"/>
      <point x="746" y="158"/>
      <point x="612" y="-7"/>
      <point x="380" y="-7" type="curve"/>
      <point x="174" y="-10"/>
      <point x="13" y="150"/>
    </contour>
    <contour>
      <point x="335" y="686" type="curve"/>
      <point x="415" y="686" type="line"/>
      <point x="283" y="604"/>
      <point x="179" y="487"/>
      <point x="101" y="332" type="curve"/>
      <point x="101" y="423" type="line"/>
      <point x="160" y="296"/>
      <point x="293" y="155"/>
      <point x="411" y="68" type="curve"/>
      <point x="332" y="68" type="line"/>
      <point x="469" y="166"/>
      <point x="564" y="273"/>
      <point x="635" y="411" type="curve"/>
      <point x="635" y="327" type="line"/>
      <point x="561" y="491"/>
      <point x="474" y="583"/>
    </contour>
  </outline>
</glyph>
